<svg xmlns="http://www.w3.org/2000/svg" version="1.1" xmlns:xlink="http://www.w3.org/1999/xlink" xmlns:svgjs="http://svgjs.dev/svgjs" width="1500" height="1500" viewBox="0 0 1500 1500"><rect width="1500" height="1500" fill="#000000"></rect><g transform="matrix(0.6666666666666666,0,0,0.6666666666666666,250.09697392792555,674.1914764888442)"><svg viewBox="0 0 386 58" data-background-color="#14293a" preserveAspectRatio="xMidYMid meet" height="225" width="1500" xmlns="http://www.w3.org/2000/svg" xmlns:xlink="http://www.w3.org/1999/xlink"><g id="tight-bounds" transform="matrix(1,0,0,1,-0.037431936179245895,0.31262909098026626)"><svg viewBox="0 0 386.0748638723585 57.92439999999999" height="57.92439999999999" width="386.0748638723585"><g><svg viewBox="0 0 386.0748638723585 57.92439999999999" height="57.92439999999999" width="386.0748638723585"><g><svg viewBox="0 0 386.0748638723585 57.92439999999999" height="57.92439999999999" width="386.0748638723585"><g id="textblocktransform"><svg viewBox="0 0 386.0748638723585 57.92439999999999" height="57.92439999999999" width="386.0748638723585" id="textblock"><g><svg viewBox="0 0 386.0748638723585 57.92439999999999" height="57.92439999999999" width="386.0748638723585"><g><svg><g></g><g></g></svg></g><g><svg><g><svg></svg></g><g></g></svg></g><g id="text-0"><svg viewBox="0 0 386.0748638723585 57.92439999999999" height="57.92439999999999" width="386.0748638723585"><g transform="matrix(1,0,0,1,0,10.612200000000001)"><svg width="143.49999999999997" viewBox="4.35 -35.15 143.49 35.8" height="35.8" data-palette-color="#e9e4de"><path d="M16.65-34.95L16.65-34.95Q20.35-34.95 22.93-34.05 25.5-33.15 27.08-31.1 28.65-29.05 29.38-25.65 30.1-22.25 30.1-17.25L30.1-17.25Q30.1-12.25 29.38-8.85 28.65-5.45 27.08-3.4 25.5-1.35 22.93-0.45 20.35 0.45 16.65 0.45L16.65 0.45Q13.1 0.45 10.08 0.33 7.05 0.2 4.35 0L4.35 0 6.25-3.6Q8.35-3.55 10.93-3.48 13.5-3.4 16.65-3.4L16.65-3.4Q19.95-3.4 21.9-4.67 23.85-5.95 24.68-8.97 25.5-12 25.5-17.25L25.5-17.25Q25.5-22.5 24.68-25.53 23.85-28.55 21.9-29.85 19.95-31.15 16.65-31.15L16.65-31.15Q13.55-31.15 11.08-31.1 8.6-31.05 6.25-31L6.25-31 4.35-34.5Q7.05-34.7 10.08-34.83 13.1-34.95 16.65-34.95ZM4.35-34.5L8.75-34.5 8.75 0 4.35 0 4.35-34.5ZM37.55-34.5L41.95-34.5 41.95 0 37.55 0 37.55-34.5ZM62.9-35.1L62.9-35.1Q65.1-35.1 66.67-35 68.25-34.9 69.57-34.68 70.9-34.45 72.3-34.1L72.3-34.1 71.85-30.75Q70.35-30.9 69.07-31 67.8-31.1 66.35-31.15 64.9-31.2 62.9-31.2L62.9-31.2Q59.55-31.2 57.6-29.9 55.65-28.6 54.82-25.55 54-22.5 54-17.25L54-17.25Q54-12 54.82-8.95 55.65-5.9 57.6-4.6 59.55-3.3 62.9-3.3L62.9-3.3Q66.1-3.3 68.27-3.43 70.45-3.55 72.55-3.85L72.55-3.85 73-0.55Q70.85 0.05 68.57 0.33 66.3 0.6 62.9 0.6L62.9 0.6Q57.95 0.6 54.97-1.13 52-2.85 50.67-6.75 49.35-10.65 49.35-17.25L49.35-17.25Q49.35-23.85 50.67-27.75 52-31.65 54.97-33.38 57.95-35.1 62.9-35.1ZM90.94-35.15L90.94-35.15Q94.69-35.15 97.32-34.25 99.94-33.35 101.52-31.28 103.09-29.2 103.82-25.75 104.54-22.3 104.54-17.25L104.54-17.25Q104.54-12.2 103.82-8.75 103.09-5.3 101.52-3.23 99.94-1.15 97.32-0.25 94.69 0.65 90.94 0.65L90.94 0.65Q87.19 0.65 84.57-0.25 81.94-1.15 80.34-3.23 78.74-5.3 78.02-8.75 77.29-12.2 77.29-17.25L77.29-17.25Q77.29-22.3 78.02-25.75 78.74-29.2 80.34-31.28 81.94-33.35 84.57-34.25 87.19-35.15 90.94-35.15ZM90.94-31.2L90.94-31.2Q87.54-31.2 85.57-29.9 83.59-28.6 82.77-25.58 81.94-22.55 81.94-17.25L81.94-17.25Q81.94-12 82.77-8.95 83.59-5.9 85.57-4.6 87.54-3.3 90.94-3.3L90.94-3.3Q94.34-3.3 96.32-4.6 98.29-5.9 99.12-8.95 99.94-12 99.94-17.25L99.94-17.25Q99.94-22.55 99.12-25.58 98.29-28.6 96.32-29.9 94.34-31.2 90.94-31.2ZM139.64-34.5L144.59-34.5Q146.39-34.5 146.39-32.65L146.39-32.65 147.84 0 143.44 0 142.19-30.85 141.14-30.85 133.44-5.4Q133.04-3.9 131.54-3.9L131.54-3.9 127.59-3.9Q126.04-3.9 125.59-5.4L125.59-5.4 117.89-30.85 116.89-30.85 115.69 0 111.29 0 112.64-32.65Q112.74-34.5 114.49-34.5L114.49-34.5 119.49-34.5Q120.89-34.5 121.34-33L121.34-33 127.79-11.95Q128.19-10.8 128.47-9.65 128.74-8.5 129.09-7.3L129.09-7.3 129.99-7.3Q130.34-8.5 130.64-9.65 130.94-10.8 131.29-12.05L131.29-12.05 137.74-33Q138.14-34.5 139.64-34.5L139.64-34.5Z" opacity="1" transform="matrix(1,0,0,1,0,0)" fill="#ffffff" class="undefined-tk-0" data-fill-palette-color="primary"></path></svg></g><g><svg xmlns="http://www.w3.org/2000/svg" xmlns:xlink="http://www.w3.org/1999/xlink" version="1.1" x="157.17559999999997" y="0" viewBox="11.017823632605122 11.461749422187646 37.96369815853941 37.06825057781236" style="enable-background:new 0 0 60 60;" xml:space="preserve" height="57.92439999999999" width="59.32366387235852" class="icon-dxe-0" data-fill-palette-color="accent" id="dxe-0"><path d="M48.85 34.1L35.82 11.92A0.945 0.945 0 0 0 34.2 11.92L30 19.08 25.79 11.93A0.945 0.945 0 0 0 24.17 11.93L11.15 34.1C10.93 34.47 10.99 34.93 11.29 35.23L24.32 48.26C24.5 48.44 24.74 48.53 24.98 48.53S25.46 48.44 25.64 48.26L30 43.91 34.35 48.26C34.53 48.44 34.77 48.53 35.01 48.53S35.49 48.44 35.67 48.26L48.7 35.23C49.01 34.93 49.07 34.46 48.85 34.1M24.99 46.28L13.13 34.42 24.99 14.24 28.92 20.92 21.17 34.1C20.95 34.47 21.01 34.93 21.31 35.23L28.67 42.59zM30 22.77L36.85 34.42 30 41.27 23.15 34.42zM35.01 46.28L31.32 42.59 38.68 35.23C38.98 34.93 39.04 34.46 38.82 34.1L31.08 20.93 35.01 14.25 46.87 34.43z" fill="#ffffff" data-fill-palette-color="accent"></path></svg></g><g transform="matrix(1,0,0,1,230.1748638723585,11.262199999999995)"><svg width="155.89999999999998" viewBox="0.85 -34.7 155.89000000000001 35.300000000000004" height="35.300000000000004" data-palette-color="#e9e4de"><path d="M25.05-34.5L29.6-34.5 19.15-1.25Q18.95-0.75 18.5-0.38 18.05 0 17.45 0L17.45 0 13 0Q12.35 0 11.9-0.38 11.45-0.75 11.3-1.25L11.3-1.25 0.85-34.5 5.4-34.5 13.55-7.15Q13.8-6.2 14.08-5.28 14.35-4.35 14.55-3.4L14.55-3.4 15.9-3.4Q16.15-4.35 16.4-5.3 16.65-6.25 16.95-7.2L16.95-7.2 25.05-34.5ZM34.55-24.35L38.75-24.35 38.75 0 34.55 0 34.55-24.35ZM35.65-34.7L37.65-34.7Q38.95-34.7 38.95-33.4L38.95-33.4 38.95-30.55Q38.95-29.25 37.65-29.25L37.65-29.25 35.65-29.25Q34.35-29.25 34.35-30.55L34.35-30.55 34.35-33.4Q34.35-34.7 35.65-34.7L35.65-34.7ZM56.75-24.95L56.75-24.95Q62.25-24.95 64.72-22.95 67.2-20.95 67.2-17L67.2-17Q67.25-13.75 65.84-11.93 64.45-10.1 61.4-10.1L61.4-10.1 47.2-10.1 47.2-13.4 60.3-13.4Q61.95-13.4 62.45-14.53 62.95-15.65 62.95-17L62.95-17Q62.9-19.35 61.55-20.35 60.2-21.35 56.95-21.35L56.95-21.35Q54.3-21.35 52.77-20.58 51.25-19.8 50.62-17.88 50-15.95 50-12.5L50-12.5Q50-8.6 50.77-6.55 51.55-4.5 53.25-3.75 54.95-3 57.75-3L57.75-3Q59.7-3 62.02-3.18 64.34-3.35 66.2-3.6L66.2-3.6 66.65-0.75Q65.5-0.3 63.82 0 62.15 0.3 60.37 0.45 58.6 0.6 57.2 0.6L57.2 0.6Q53 0.6 50.45-0.68 47.9-1.95 46.72-4.78 45.55-7.6 45.55-12.25L45.55-12.25Q45.55-17.05 46.72-19.83 47.9-22.6 50.37-23.78 52.85-24.95 56.75-24.95ZM105.24-24.35L109.64-24.35 102.54-1.2Q102.39-0.65 101.94-0.33 101.49 0 100.89 0L100.89 0 97.04 0Q96.44 0 95.97-0.38 95.49-0.75 95.39-1.35L95.39-1.35 91.39-17.9Q91.19-18.85 91.02-19.8 90.84-20.75 90.59-21.75L90.59-21.75 89.99-21.75Q89.79-20.75 89.57-19.8 89.34-18.85 89.14-17.9L89.14-17.9 85.19-1.35Q85.04-0.75 84.59-0.38 84.14 0 83.49 0L83.49 0 79.69 0Q79.09 0 78.64-0.33 78.19-0.65 78.04-1.2L78.04-1.2 70.94-24.35 75.34-24.35 80.39-6.4Q80.64-5.5 80.84-4.58 81.04-3.65 81.19-2.75L81.19-2.75 81.84-2.75Q82.09-3.65 82.32-4.58 82.54-5.5 82.74-6.4L82.74-6.4 86.79-23Q86.89-23.6 87.32-23.98 87.74-24.35 88.39-24.35L88.39-24.35 92.24-24.35Q92.84-24.35 93.27-23.98 93.69-23.6 93.84-22.95L93.84-22.95 97.84-6.4Q98.04-5.5 98.27-4.6 98.49-3.7 98.69-2.75L98.69-2.75 99.34-2.75Q99.59-3.7 99.74-4.58 99.89-5.45 100.19-6.4L100.19-6.4 105.24-24.35ZM124.64-24.95L124.64-24.95Q130.14-24.95 132.62-22.95 135.09-20.95 135.09-17L135.09-17Q135.14-13.75 133.74-11.93 132.34-10.1 129.29-10.1L129.29-10.1 115.09-10.1 115.09-13.4 128.19-13.4Q129.84-13.4 130.34-14.53 130.84-15.65 130.84-17L130.84-17Q130.79-19.35 129.44-20.35 128.09-21.35 124.84-21.35L124.84-21.35Q122.19-21.35 120.67-20.58 119.14-19.8 118.52-17.88 117.89-15.95 117.89-12.5L117.89-12.5Q117.89-8.6 118.67-6.55 119.44-4.5 121.14-3.75 122.84-3 125.64-3L125.64-3Q127.59-3 129.92-3.18 132.24-3.35 134.09-3.6L134.09-3.6 134.54-0.75Q133.39-0.3 131.72 0 130.04 0.3 128.27 0.45 126.49 0.6 125.09 0.6L125.09 0.6Q120.89 0.6 118.34-0.68 115.79-1.95 114.62-4.78 113.44-7.6 113.44-12.25L113.44-12.25Q113.44-17.05 114.62-19.83 115.79-22.6 118.27-23.78 120.74-24.95 124.64-24.95ZM141.49-24.35L144.79-24.35 145.34-19.7 145.74-18.95 145.74 0 141.49 0 141.49-24.35ZM155.64-24.95L156.74-24.95 156.24-20.95 154.84-20.95Q152.69-20.95 150.54-20.08 148.39-19.2 145.29-17.6L145.29-17.6 144.94-20.25Q147.64-22.45 150.36-23.7 153.09-24.95 155.64-24.95L155.64-24.95Z" opacity="1" transform="matrix(1,0,0,1,0,0)" fill="#ffffff" class="undefined-tk-1" data-fill-palette-color="secondary"></path></svg></g></svg></g></svg></g></svg></g></svg></g><g></g></svg></g><defs></defs></svg><rect width="386.0748638723585" height="57.92439999999999" fill="none" stroke="none" visibility="hidden"></rect></g></svg></g></svg>